<svg xmlns="http://www.w3.org/2000/svg" viewBox="0 0 561.57 442.51"><defs><style>.cls-1{fill:#55848a;}.cls-2{fill:#25646a;}.cls-3{fill:#9eaea2;}</style></defs><g id="Layer_2" data-name="Layer 2"><g id="Layer_12" data-name="Layer 12"><circle class="cls-1" cx="100.33" cy="81.6" r="53.83"/><path class="cls-1" d="M215.11,227.25c-42.62,38.16-70.57,19.14-71.36,4.09C140.64,172,2.42,283.05.08,238.52S44,155.36,103.37,152.25,248.34,197.5,215.11,227.25Z"/><circle class="cls-1" cx="439.08" cy="70.97" r="53.83"/><path class="cls-1" d="M553.86,216.62c-42.62,38.16-70.57,19.14-71.36,4.09-3.11-59.38-141.33,51.71-143.67,7.18s43.92-83.16,103.29-86.27S587.09,186.87,553.86,216.62Z"/><circle class="cls-2" cx="273.53" cy="58.3" r="58.29"/><path class="cls-2" d="M397.84,216c-46.16,41.32-76.43,20.73-77.28,4.43-3.37-64.31-153,56-155.58,7.77s47.55-90.06,111.85-93.43S433.81,183.8,397.84,216Z"/><path class="cls-3" d="M85.38,344v-91.9H99V344Z"/><path class="cls-3" d="M199.89,252.14h16.39V344H203.43V270.77l-29.19,60.36H162.38l-29.12-59.24V344H120.4v-91.9h16.34l31.85,65.58Z"/><path class="cls-3" d="M303,344,292.78,316H252.61L242.42,344H229L263,252.14h19.5L316.69,344ZM256.64,305h32.11l-16-44.21Z"/><path class="cls-3" d="M397.78,299.34v43.59Q391.51,344,386,344.45t-11.33.46q-25.71,0-38.56-11.55t-12.92-35.08q0-15.84,6-26.39a37.05,37.05,0,0,1,17.14-15.74Q357.49,251,373.19,251a93.75,93.75,0,0,1,22.05,2.73v11.49a82.84,82.84,0,0,0-21.05-2.73q-18,.06-27.39,8.57t-9.37,27.13q0,18,9,26.67t27.45,8.67a102.84,102.84,0,0,0,11.11-.56V299.34Z"/><path class="cls-3" d="M431.87,333.05h50.05v11H418.34v-91.9h63v11H431.87v28.32H475v11H431.87Z"/><path class="cls-3" d="M64.71,401.31q4.76,5.67,4.75,14.62,0,8.7-4.31,14.47t-13.91,8.78q-9.6,3-25.3,3A194,194,0,0,1,.79,440.52V351.35a137.17,137.17,0,0,1,28.31-2.92q19.62,0,28.69,6.18t9.07,18.78a21.41,21.41,0,0,1-4,13.14q-4,5.43-12,7.42Q60,395.63,64.71,401.31ZM14.14,360V389h18.5q11.11,0,16.21-3.66T53.94,374a15.15,15.15,0,0,0-2.33-8.81,13.46,13.46,0,0,0-7.45-4.94,47.4,47.4,0,0,0-13.63-1.58A89.88,89.88,0,0,0,14.14,360Zm31.45,70.17q6.06-1.8,8.6-5.4a15.77,15.77,0,0,0,2.54-9.32q0-8.31-5.4-12.17t-17.08-3.85H14.14v31.67a112.11,112.11,0,0,0,15,.87Q39.54,432,45.59,430.15Z"/><path class="cls-3" d="M98,430.34H148v11H84.42V349.42h63v11H98v28.31h43.16v11H98Z"/><path class="cls-3" d="M226.81,441.33l-10.18-28.07H176.45l-10.18,28.07H152.79l34.09-91.91h19.5l34.15,91.91Zm-46.32-39.06h32.1l-16-44.21Z"/><path class="cls-3" d="M311.07,441.33l-28-36.64q-1.12.06-3.54.06-6.09,0-13.16-.5v37.08H252.89v-90a129.81,129.81,0,0,1,27.51-2.92q19.62,0,29.15,6.74t9.53,21.2q.06,10.5-5.65,17.17T296.67,403l29.68,38.38Zm-44.7-47.63c2.48.25,4.68.42,6.61.53s4.23.15,6.92.15q13.73,0,20-4.31t6.3-13.57q0-6.47-2.61-10.34a14.78,14.78,0,0,0-8-5.65,46.57,46.57,0,0,0-14.16-1.77c-2.94,0-5.57.1-7.91.31s-4.73.54-7.17,1Z"/><path class="cls-3" d="M353.55,430.34H403.6v11H340V349.42h63v11H353.55v28.31H396.7v11H353.55Z"/><path class="cls-3" d="M477.74,441.33l-28-36.64q-1.11.06-3.54.06-6.09,0-13.16-.5v37.08H419.55v-90a130,130,0,0,1,27.51-2.92q19.62,0,29.15,6.74t9.54,21.2q.06,10.5-5.65,17.17T463.33,403L493,441.33ZM433,393.7c2.48.25,4.69.42,6.61.53s4.23.15,6.93.15q13.71,0,20-4.31t6.3-13.57q0-6.47-2.6-10.34a14.78,14.78,0,0,0-8-5.65,46.66,46.66,0,0,0-14.16-1.77q-4.41,0-7.92.31T433,360Z"/><path class="cls-3" d="M512.79,441.48a75,75,0,0,1-12.32-3v-11.3a77.45,77.45,0,0,0,12.69,3,82,82,0,0,0,12.77,1.06q11.3,0,16.64-3.79t5.34-11.18a12.62,12.62,0,0,0-1.71-6.86,13,13,0,0,0-5.56-4.56,50.29,50.29,0,0,0-10.49-3.36l-6-1.36q-13.05-2.85-19.25-9.07t-6.21-16.45a24.56,24.56,0,0,1,4-14.22q4-5.89,12.14-9.07t20-3.16a87.34,87.34,0,0,1,11.76.77,70.53,70.53,0,0,1,10.59,2.21v11.3a74,74,0,0,0-21.92-3.11q-22.92,0-22.91,14.6a13.48,13.48,0,0,0,1.52,6.73,12,12,0,0,0,5,4.57,39.42,39.42,0,0,0,9.59,3.23l5.9,1.36q14.22,3.1,20.68,9.28t6.46,16.43a24.68,24.68,0,0,1-4.23,14.5,26.11,26.11,0,0,1-12.23,9.22q-8,3.17-19.25,3.17A83.71,83.71,0,0,1,512.79,441.48Z"/></g></g></svg>